# xmcd
#
# Track frame offsets: 
#        150
#        19472
#        38369
#        61131
#        84591
#        100916
#        127491
#        149403
#        168081
#        192376
#        215798
#        242773
#
# Disc length: 3469 seconds
#
# Revision: 1
# Processed by: cddbd v1.5.2PL0 Copyright (c) Steve Scherf et al.
# Submitted via: ExactAudioCopy v1.0b3
#
DISCID=ae0d8b0c
DTITLE=Runrig - Amazing Things
DYEAR=1993
DGENRE=Celtic Rock
TTITLE0=Amazing Things
TTITLE1=Wonderful
TTITLE2=The Greatest Flame
TTITLE3=Move A Mountain
TTITLE4=Pog Aon Oidhche Earraich (A Kiss One Spring Evening)
TTITLE5=Dream Fields
TTITLE6=Song Of The Earth
TTITLE7=Forever Eyes Of Blue
TTITLE8=Sraideann Na Roinn-Eorpa (Streets Of Europe)
TTITLE9=Canada
TTITLE10=Ard (High)
TTITLE11=On The Edge
EXTD=
EXTT0=
EXTT1=
EXTT2=
EXTT3=
EXTT4=
EXTT5=
EXTT6=
EXTT7=
EXTT8=
EXTT9=
EXTT10=
EXTT11=
PLAYORDER=
